<svg xmlns="http://www.w3.org/2000/svg" viewBox="0 0 800 741" width="800" height="741" font-family="ui-sans-serif,-apple-system,'PingFang SC','Noto Sans CJK SC',sans-serif">
<rect width="800" height="741" fill="#faf9f7"/>
<text x="68" y="30" font-size="17" font-weight="700" fill="#1c1917">S01 北阳城城隍庙　平面图（俯视）</text>
<text x="68" y="49" font-size="10.5" fill="#78716c">面阔三间 9.0m × 进深 7.2m｜单进单殿｜抬梁式木构｜硬山顶灰瓦　★ 本图锁死几何，任何镜头不得与之冲突</text>
<polygon points="102.9,638.2 697.1,638.2 697.1,148.9 102.9,148.9" fill="#78716c" opacity="0.04"/>
<polygon points="102.9,638.2 697.1,638.2 697.1,148.9 102.9,148.9" fill="none" stroke="#78716c" stroke-width="1.2" stroke-dasharray="6 4" opacity="0.5"/>
<text x="400.0" y="658.6" font-size="9" text-anchor="middle" fill="#57534e" opacity="0.85" font-weight="400">台基外沿（比室内地面高约 0.45m，前有三级踏跺）</text>
<polygon points="137.9,603.3 662.1,603.3 662.1,183.9 137.9,183.9" fill="none" stroke="#1c1917" stroke-width="3.2" opacity="1" stroke-linejoin="miter"/>
<polyline points="137.9,151.9 662.1,151.9" fill="none" stroke="#a8a29e" stroke-width="1.0" opacity="0.7"/>
<polyline points="137.9,183.9 137.9,151.9" fill="none" stroke="#a8a29e" stroke-width="0.8" opacity="0.5"/>
<polyline points="662.1,183.9 662.1,151.9" fill="none" stroke="#a8a29e" stroke-width="0.8" opacity="0.5"/>
<text x="400.0" y="151.9" font-size="9" text-anchor="middle" fill="#78716c" opacity="0.85" font-weight="600">面阔 9.0m</text>
<polyline points="630.1,603.3 630.1,183.9" fill="none" stroke="#a8a29e" stroke-width="1.0" opacity="0.7"/>
<polyline points="662.1,603.3 630.1,603.3" fill="none" stroke="#a8a29e" stroke-width="0.8" opacity="0.5"/>
<polyline points="662.1,183.9 630.1,183.9" fill="none" stroke="#a8a29e" stroke-width="0.8" opacity="0.5"/>
<text x="630.1" y="393.6" font-size="9" text-anchor="middle" fill="#78716c" opacity="0.85" font-weight="600">进深 7.2m</text>
<circle cx="137.9" cy="603.3" r="11.6" fill="#1c1917" opacity="0.14"/>
<circle cx="137.9" cy="603.3" r="11.6" fill="none" stroke="#1c1917" stroke-width="1.6" opacity="0.9"/>
<circle cx="137.9" cy="393.6" r="11.6" fill="#1c1917" opacity="0.14"/>
<circle cx="137.9" cy="393.6" r="11.6" fill="none" stroke="#1c1917" stroke-width="1.6" opacity="0.9"/>
<circle cx="137.9" cy="183.9" r="11.6" fill="#1c1917" opacity="0.14"/>
<circle cx="137.9" cy="183.9" r="11.6" fill="none" stroke="#1c1917" stroke-width="1.6" opacity="0.9"/>
<circle cx="295.2" cy="603.3" r="11.6" fill="#1c1917" opacity="0.14"/>
<circle cx="295.2" cy="603.3" r="11.6" fill="none" stroke="#1c1917" stroke-width="1.6" opacity="0.9"/>
<circle cx="295.2" cy="393.6" r="11.6" fill="#1c1917" opacity="0.14"/>
<circle cx="295.2" cy="393.6" r="11.6" fill="none" stroke="#1c1917" stroke-width="1.6" opacity="0.9"/>
<circle cx="295.2" cy="183.9" r="11.6" fill="#1c1917" opacity="0.14"/>
<circle cx="295.2" cy="183.9" r="11.6" fill="none" stroke="#1c1917" stroke-width="1.6" opacity="0.9"/>
<circle cx="504.8" cy="603.3" r="11.6" fill="#1c1917" opacity="0.14"/>
<circle cx="504.8" cy="603.3" r="11.6" fill="none" stroke="#1c1917" stroke-width="1.6" opacity="0.9"/>
<circle cx="504.8" cy="393.6" r="11.6" fill="#1c1917" opacity="0.14"/>
<circle cx="504.8" cy="393.6" r="11.6" fill="none" stroke="#1c1917" stroke-width="1.6" opacity="0.9"/>
<circle cx="504.8" cy="183.9" r="11.6" fill="#1c1917" opacity="0.14"/>
<circle cx="504.8" cy="183.9" r="11.6" fill="none" stroke="#1c1917" stroke-width="1.6" opacity="0.9"/>
<circle cx="662.1" cy="603.3" r="11.6" fill="#1c1917" opacity="0.14"/>
<circle cx="662.1" cy="603.3" r="11.6" fill="none" stroke="#1c1917" stroke-width="1.6" opacity="0.9"/>
<circle cx="662.1" cy="393.6" r="11.6" fill="#1c1917" opacity="0.14"/>
<circle cx="662.1" cy="393.6" r="11.6" fill="none" stroke="#1c1917" stroke-width="1.6" opacity="0.9"/>
<circle cx="662.1" cy="183.9" r="11.6" fill="#1c1917" opacity="0.14"/>
<circle cx="662.1" cy="183.9" r="11.6" fill="none" stroke="#1c1917" stroke-width="1.6" opacity="0.9"/>
<polyline points="137.9,578.8 295.2,578.8" fill="none" stroke="#a8a29e" stroke-width="1.0" opacity="0.7"/>
<polyline points="137.9,603.3 137.9,578.8" fill="none" stroke="#a8a29e" stroke-width="0.8" opacity="0.5"/>
<polyline points="295.2,603.3 295.2,578.8" fill="none" stroke="#a8a29e" stroke-width="0.8" opacity="0.5"/>
<text x="216.5" y="578.8" font-size="9" text-anchor="middle" fill="#78716c" opacity="0.85" font-weight="600">次间 2.7</text>
<polyline points="295.2,578.8 504.8,578.8" fill="none" stroke="#a8a29e" stroke-width="1.0" opacity="0.7"/>
<polyline points="295.2,603.3 295.2,578.8" fill="none" stroke="#a8a29e" stroke-width="0.8" opacity="0.5"/>
<polyline points="504.8,603.3 504.8,578.8" fill="none" stroke="#a8a29e" stroke-width="0.8" opacity="0.5"/>
<text x="400.0" y="578.8" font-size="9" text-anchor="middle" fill="#78716c" opacity="0.85" font-weight="600">明间 3.6</text>
<polyline points="504.8,578.8 662.1,578.8" fill="none" stroke="#a8a29e" stroke-width="1.0" opacity="0.7"/>
<polyline points="504.8,603.3 504.8,578.8" fill="none" stroke="#a8a29e" stroke-width="0.8" opacity="0.5"/>
<polyline points="662.1,603.3 662.1,578.8" fill="none" stroke="#a8a29e" stroke-width="0.8" opacity="0.5"/>
<text x="583.5" y="578.8" font-size="9" text-anchor="middle" fill="#78716c" opacity="0.85" font-weight="600">次间 2.7</text>
<text x="184.5" y="163.5" font-size="9" text-anchor="middle" fill="#57534e" opacity="0.85" font-weight="400">● ＝ 柱位（12 根，柱径约 0.34m）</text>
<polyline points="295.2,603.3 504.8,603.3" fill="none" stroke="#faf9f7" stroke-width="4.0" opacity="1"/>
<polyline points="303.9,603.3 394.2,603.3" fill="none" stroke="#1c1917" stroke-width="2.4" stroke-dasharray="2 3" opacity="0.95"/>
<text x="347.6" y="623.6" font-size="8.5" text-anchor="middle" fill="#57534e" opacity="0.85" font-weight="400">✗ 缺失的一扇</text>
<polyline points="400.0,603.3 469.9,641.1" fill="none" stroke="#1c1917" stroke-width="3.0" opacity="1"/>
<text x="481.5" y="637.0" font-size="8.5" text-anchor="start" fill="#57534e" opacity="0.85" font-weight="400">歪斜挂着的单扇木门 →</text>
<polygon points="178.7,609.1 260.2,609.1 260.2,597.4 178.7,597.4" fill="#78716c" opacity="0.25"/>
<polygon points="178.7,609.1 260.2,609.1 260.2,597.4 178.7,597.4" fill="none" stroke="#78716c" stroke-width="1.6" opacity="0.9"/>
<polygon points="545.6,609.1 627.2,609.1 627.2,597.4 545.6,597.4" fill="#78716c" opacity="0.25"/>
<polygon points="545.6,609.1 627.2,609.1 627.2,597.4 545.6,597.4" fill="none" stroke="#78716c" stroke-width="1.6" opacity="0.9"/>
<text x="219.4" y="623.6" font-size="8.5" text-anchor="middle" fill="#57534e" opacity="0.85" font-weight="400">破窗纸</text>
<text x="586.4" y="623.6" font-size="8.5" text-anchor="middle" fill="#57534e" opacity="0.85" font-weight="400">破窗纸</text>
<circle cx="400.0" cy="236.3" r="32.0" fill="#1c1917" opacity="0.16"/>
<circle cx="400.0" cy="236.3" r="32.0" fill="none" stroke="#1c1917" stroke-width="2.2" opacity="1"/>
<text x="400.0" y="236.3" font-size="11" text-anchor="middle" fill="#1c1917" opacity="0.9" font-weight="700">神</text>
<text x="400.0" y="166.4" font-size="9.5" text-anchor="middle" fill="#57534e" opacity="0.85" font-weight="400">★ 城隍泥塑（无首・断右手）　塑高约 2.1m（含座）</text>
<polygon points="350.5,314.9 449.5,314.9 449.5,278.8 350.5,278.8" fill="#1c1917" opacity="0.1"/>
<polygon points="350.5,314.9 449.5,314.9 449.5,278.8 350.5,278.8" fill="none" stroke="#1c1917" stroke-width="1.8" opacity="0.95"/>
<text x="400.0" y="329.5" font-size="9" text-anchor="middle" fill="#57534e" opacity="0.85" font-weight="400">供桌 1.7×0.62　★ 左前角塌陷</text>
<polyline points="350.5,314.9 373.8,297.5" fill="none" stroke="#b91c1c" stroke-width="2.0" opacity="0.9"/>
<polygon points="446.6,422.7 504.8,422.7 504.8,364.5 446.6,364.5" fill="#b45309" opacity="0.14"/>
<polygon points="446.6,422.7 504.8,422.7 504.8,364.5 446.6,364.5" fill="none" stroke="#b45309" stroke-width="2.2" stroke-dasharray="7 4" opacity="1"/>
<text x="475.7" y="393.6" font-size="9.5" text-anchor="middle" fill="#b45309" opacity="0.95" font-weight="700">破洞</text>
<text x="475.7" y="443.1" font-size="9" text-anchor="middle" fill="#57534e" opacity="0.85" font-weight="400">1.0×1.0m　正中偏右　★ 坐标原点</text>
<circle cx="472.8" cy="408.1" r="36.1" fill="#f59e0b" opacity="0.2"/>
<circle cx="472.8" cy="408.1" r="36.1" fill="none" stroke="#f59e0b" stroke-width="1.6" opacity="0.9"/>
<text x="586.4" y="408.1" font-size="9" text-anchor="start" fill="#57534e" opacity="0.85" font-weight="400">正午光斑落点</text>
<polygon points="161.2,556.7 277.7,556.7 277.7,469.3 161.2,469.3" fill="#78716c" opacity="0.05"/>
<polygon points="161.2,556.7 277.7,556.7 277.7,469.3 161.2,469.3" fill="none" stroke="#78716c" stroke-width="1.0" stroke-dasharray="3 3" opacity="0.55"/>
<polygon points="161.2,428.5 271.9,428.5 271.9,347.0 161.2,347.0" fill="#78716c" opacity="0.05"/>
<polygon points="161.2,428.5 271.9,428.5 271.9,347.0 161.2,347.0" fill="none" stroke="#78716c" stroke-width="1.0" stroke-dasharray="3 3" opacity="0.55"/>
<polygon points="161.2,312.0 266.0,312.0 266.0,230.5 161.2,230.5" fill="#78716c" opacity="0.05"/>
<polygon points="161.2,312.0 266.0,312.0 266.0,230.5 161.2,230.5" fill="none" stroke="#78716c" stroke-width="1.0" stroke-dasharray="3 3" opacity="0.55"/>
<polygon points="551.4,556.7 644.6,556.7 644.6,475.1 551.4,475.1" fill="#78716c" opacity="0.05"/>
<polygon points="551.4,556.7 644.6,556.7 644.6,475.1 551.4,475.1" fill="none" stroke="#78716c" stroke-width="1.0" stroke-dasharray="3 3" opacity="0.55"/>
<polygon points="551.4,428.5 644.6,428.5 644.6,341.2 551.4,341.2" fill="#78716c" opacity="0.05"/>
<polygon points="551.4,428.5 644.6,428.5 644.6,341.2 551.4,341.2" fill="none" stroke="#78716c" stroke-width="1.0" stroke-dasharray="3 3" opacity="0.55"/>
<polygon points="551.4,312.0 644.6,312.0 644.6,236.3 551.4,236.3" fill="#78716c" opacity="0.05"/>
<polygon points="551.4,312.0 644.6,312.0 644.6,236.3 551.4,236.3" fill="none" stroke="#78716c" stroke-width="1.0" stroke-dasharray="3 3" opacity="0.55"/>
<text x="219.4" y="460.6" font-size="8.5" text-anchor="middle" fill="#57534e" opacity="0.85" font-weight="400">草席・稻草・破碗（乞丐铺位）</text>
<text x="598.0" y="460.6" font-size="8.5" text-anchor="middle" fill="#57534e" opacity="0.85" font-weight="400">同左</text>
<circle cx="633.0" cy="213.0" r="24.5" fill="#78716c" opacity="0.08"/>
<circle cx="633.0" cy="213.0" r="24.5" fill="none" stroke="#78716c" stroke-width="1.0" opacity="0.5"/>
<text x="633.0" y="245.1" font-size="8.2" text-anchor="middle" fill="#57534e" opacity="0.85" font-weight="400">墙角便溺痕</text>
<circle cx="475.7" cy="393.6" r="17.5" fill="#f59e0b" opacity="0.18"/>
<circle cx="475.7" cy="393.6" r="17.5" fill="none" stroke="#b45309" stroke-width="1.5" stroke-dasharray="4 3"/>
<text x="475.7" y="397.1" font-size="10" text-anchor="middle" fill="#b45309" font-weight="700">☀</text>
<text x="475.7" y="369.1" font-size="9" text-anchor="middle" fill="#b45309" font-weight="600">唯一光源：屋顶破洞</text>
<polygon points="400.0,556.7 461.9,464.9 338.1,464.9" fill="#0369a1" opacity="0.10"/>
<polyline points="461.9,464.9 400.0,556.7 338.1,464.9" fill="none" stroke="#0369a1" stroke-width="1.1" opacity="0.6"/>
<circle cx="400.0" cy="556.7" r="11" fill="#fff" stroke="#0369a1" stroke-width="1.8"/>
<text x="400.0" y="560.3" font-size="11" text-anchor="middle" fill="#0369a1" font-weight="700">1</text>
<text x="400.0" y="580.7" font-size="8.5" text-anchor="middle" fill="#0369a1" opacity="0.85">殿心平视（主机位）</text>
<polygon points="207.8,358.6 299.5,420.5 299.5,296.7" fill="#0369a1" opacity="0.10"/>
<polyline points="299.5,420.5 207.8,358.6 299.5,296.7" fill="none" stroke="#0369a1" stroke-width="1.1" opacity="0.6"/>
<circle cx="207.8" cy="358.6" r="11" fill="#fff" stroke="#0369a1" stroke-width="1.8"/>
<text x="207.8" y="362.2" font-size="11" text-anchor="middle" fill="#0369a1" font-weight="700">2</text>
<text x="207.8" y="382.6" font-size="8.5" text-anchor="middle" fill="#0369a1" opacity="0.85">西侧向东</text>
<polygon points="586.4,288.7 479.0,262.0 521.3,378.3" fill="#0369a1" opacity="0.10"/>
<polyline points="479.0,262.0 586.4,288.7 521.3,378.3" fill="none" stroke="#0369a1" stroke-width="1.1" opacity="0.6"/>
<circle cx="586.4" cy="288.7" r="11" fill="#fff" stroke="#0369a1" stroke-width="1.8"/>
<text x="586.4" y="292.3" font-size="11" text-anchor="middle" fill="#0369a1" font-weight="700">3</text>
<text x="586.4" y="312.7" font-size="8.5" text-anchor="middle" fill="#0369a1" opacity="0.85">东北向西南</text>
<polygon points="400.0,655.7 461.9,563.9 338.1,563.9" fill="#0369a1" opacity="0.10"/>
<polyline points="461.9,563.9 400.0,655.7 338.1,563.9" fill="none" stroke="#0369a1" stroke-width="1.1" opacity="0.6"/>
<circle cx="400.0" cy="655.7" r="11" fill="#fff" stroke="#0369a1" stroke-width="1.8"/>
<text x="400.0" y="659.3" font-size="11" text-anchor="middle" fill="#0369a1" font-weight="700">4</text>
<text x="400.0" y="679.7" font-size="8.5" text-anchor="middle" fill="#0369a1" opacity="0.85">门外向内（含门框）</text>
<text x="68" y="725" font-size="9.5" fill="#78716c">● 柱位　▭ 家具/铺位　橙虚线 ＝ 屋顶破洞在地面的投影　橙实圈 ＝ 正午光斑　蓝圈 ＝ 固定机位与视锥　灰虚线 ＝ 台基外沿</text>
</svg>